<svg width="28" height="28" viewBox="0 0 28 28" fill="none" xmlns="http://www.w3.org/2000/svg">
<g filter="url(#filter0_d_374_4226)">
<rect x="2.5" y="2.5" width="23" height="23" rx="3.5" stroke="white" shape-rendering="crispEdges"/>
<path d="M9.5 5.5V8.5" stroke="#222222" stroke-linecap="round"/>
<path d="M9.5 16.5V20.5" stroke="#222222" stroke-linecap="round"/>
<path d="M8.8 8.5C8.08203 8.5 7.5 9.08203 7.5 9.8V15.2C7.5 15.918 8.08203 16.5 8.8 16.5H10.2C10.918 16.5 11.5 15.918 11.5 15.2V9.8C11.5 9.08203 10.918 8.5 10.2 8.5H8.8Z" fill="#222222" stroke="#222222"/>
<path d="M18.5 8.5V13.5" stroke="#222222" stroke-linecap="round"/>
<path d="M18.5 18.5V22.5" stroke="#222222" stroke-linecap="round"/>
<path d="M17.8 13.5C17.082 13.5 16.5 14.082 16.5 14.8V17.2C16.5 17.918 17.082 18.5 17.8 18.5H19.2C19.918 18.5 20.5 17.918 20.5 17.2V14.8C20.5 14.082 19.918 13.5 19.2 13.5H17.8Z" fill="#222222" stroke="#222222"/>
</g>
<defs>
<filter id="filter0_d_374_4226" x="0" y="0" width="28" height="28" filterUnits="userSpaceOnUse" color-interpolation-filters="sRGB">
<feFlood flood-opacity="0" result="BackgroundImageFix"/>
<feColorMatrix in="SourceAlpha" type="matrix" values="0 0 0 0 0 0 0 0 0 0 0 0 0 0 0 0 0 0 127 0" result="hardAlpha"/>
<feOffset/>
<feGaussianBlur stdDeviation="1"/>
<feComposite in2="hardAlpha" operator="out"/>
<feColorMatrix type="matrix" values="0 0 0 0 0 0 0 0 0 0 0 0 0 0 0 0 0 0 0.5 0"/>
<feBlend mode="normal" in2="BackgroundImageFix" result="effect1_dropShadow_374_4226"/>
<feBlend mode="normal" in="SourceGraphic" in2="effect1_dropShadow_374_4226" result="shape"/>
</filter>
</defs>
</svg>
