<svg width="24" height="24" viewBox="0 0 24 24" fill="none" xmlns="http://www.w3.org/2000/svg">
<path fill-rule="evenodd" clip-rule="evenodd" d="M20.9444 15.0018C21.0056 15.5506 20.5522 15.9998 19.9999 15.9998H16.9948C16.4425 15.9998 16.0071 15.5452 15.8703 15.0102C15.7351 14.4815 15.4926 13.9843 15.156 13.5505L18.7074 9.99904C19.9576 11.3963 20.7375 13.1465 20.9444 15.0018ZM18.0003 9.29195C16.4786 7.93065 14.5384 7.12702 12.4999 7.01367V12.0362C13.21 12.1258 13.8833 12.4047 14.4488 12.8434L18.0003 9.29195ZM9.55095 12.8435C10.1164 12.4047 10.7898 12.1258 11.4999 12.0362V7.01367C9.46131 7.12702 7.5211 7.93066 5.99944 9.29196L9.55095 12.8435ZM5.29232 9.99905C4.04219 11.3963 3.26231 13.1465 3.05536 15.0018C2.99413 15.5506 3.4476 15.9998 3.99988 15.9998H7.00494C7.55722 15.9998 7.99262 15.5452 8.12944 15.0102C8.26462 14.4815 8.50718 13.9843 8.84381 13.5505L5.29232 9.99905Z" fill="#222222"/>
</svg>
