<svg width="24" height="24" viewBox="0 0 24 24" fill="none" xmlns="http://www.w3.org/2000/svg">
<path fill-rule="evenodd" clip-rule="evenodd" d="M18.5207 10.1858C18.6222 10.0843 18.7884 10.0888 18.8809 10.1985C20.1908 11.752 20.9399 13.7084 20.9966 15.7497C21.0004 15.8877 20.8881 15.9997 20.75 15.9997H16.245C16.1069 15.9997 15.9958 15.8877 15.9872 15.7499C15.9416 15.022 15.6978 14.3234 15.2864 13.7283C15.2148 13.6246 15.2229 13.4836 15.312 13.3945L18.5207 10.1858ZM17.8009 9.11854C17.9106 9.21105 17.9151 9.37726 17.8136 9.47875L14.6048 12.6875C14.5158 12.7766 14.3748 12.7847 14.2712 12.7131C13.805 12.391 13.2753 12.1716 12.7179 12.0698C12.594 12.0471 12.5 11.9417 12.5 11.8157V7.27788C12.5 7.13435 12.6207 7.01997 12.7637 7.03214C14.6178 7.18996 16.3782 7.91914 17.8009 9.11854ZM11.5 7.27788C11.5 7.13435 11.3794 7.01997 11.2364 7.03214C9.38228 7.18996 7.62183 7.91914 6.19917 9.11855C6.08943 9.21107 6.08499 9.37727 6.18648 9.47876L9.39524 12.6875C9.48431 12.7766 9.62528 12.7847 9.72892 12.7131C10.1951 12.391 10.7247 12.1716 11.2822 12.0698C11.4061 12.0471 11.5 11.9417 11.5 11.8157V7.27788ZM8.71367 13.7283C8.7853 13.6246 8.77716 13.4836 8.68808 13.3946L5.47935 10.1858C5.37787 10.0844 5.21167 10.0888 5.11915 10.1985C3.80929 11.7521 3.06018 13.7084 3.00351 15.7497C2.99968 15.8877 3.11197 15.9997 3.25004 15.9997L7.7551 15.9997C7.89317 15.9997 8.00429 15.8877 8.01292 15.7499C8.05849 15.022 8.30232 14.3234 8.71367 13.7283Z" fill="#7E869E" fill-opacity="0.25"/>
<path fill-rule="evenodd" clip-rule="evenodd" d="M12.5 11.805C12.5 11.931 12.594 12.0365 12.7179 12.0591C13.278 12.1611 13.8101 12.3815 14.2782 12.7054C14.3819 12.777 14.5229 12.7689 14.612 12.6798L18.5228 8.769C18.6239 8.6679 18.6199 8.50249 18.5114 8.40939C16.8974 7.02456 14.8828 6.1901 12.7623 6.02806C12.6198 6.01717 12.5 6.13132 12.5 6.2743V11.805Z" fill="#222222"/>
</svg>
