<svg width="24" height="24" viewBox="0 0 24 24" fill="none" xmlns="http://www.w3.org/2000/svg">
<path d="M5 11.7595C5 10.4018 5 9.72291 5.27446 9.12617C5.54892 8.52943 6.06437 8.08763 7.09525 7.20401L8.09525 6.34687C9.95857 4.74974 10.8902 3.95117 12 3.95117C13.1098 3.95117 14.0414 4.74974 15.9047 6.34687L16.9047 7.20401C17.9356 8.08763 18.4511 8.52943 18.7255 9.12617C19 9.72291 19 10.4018 19 11.7595V15.9999C19 17.8856 19 18.8284 18.4142 19.4142C17.8284 19.9999 16.8856 19.9999 15 19.9999H9C7.11438 19.9999 6.17157 19.9999 5.58579 19.4142C5 18.8284 5 17.8856 5 15.9999V11.7595Z" stroke="#222222"/>
<path d="M14.5 20V15C14.5 14.4477 14.0523 14 13.5 14H10.5C9.94772 14 9.5 14.4477 9.5 15V20" stroke="#222222" stroke-linecap="round" stroke-linejoin="round"/>
</svg>
