<svg width="24" height="24" viewBox="0 0 24 24" fill="none" xmlns="http://www.w3.org/2000/svg">
<path fill-rule="evenodd" clip-rule="evenodd" d="M5.81689 16.2456C6.11367 16.6778 6.45637 17.0799 6.84061 17.4441C7.89267 18.4412 9.21114 19.1121 10.6365 19.3756C12.0619 19.6392 13.5331 19.484 14.8721 18.9289C16.2111 18.3738 17.3606 17.4426 18.1815 16.2479C19.0023 15.0532 19.4594 13.6462 19.4974 12.1971C19.5354 10.7481 19.1526 9.31913 18.3955 8.08306C17.6384 6.84699 16.5392 5.85682 15.2311 5.23233C14.396 4.83363 13.4985 4.5949 12.5846 4.52344L12.8619 5.55801C13.5307 5.64749 14.185 5.84104 14.8003 6.13477C15.934 6.67599 16.8866 7.53414 17.5428 8.6054C18.199 9.67666 18.5307 10.9151 18.4977 12.1709C18.4648 13.4268 18.0687 14.6461 17.3573 15.6816C16.6459 16.717 15.6496 17.524 14.4892 18.0051C13.3287 18.4862 12.0536 18.6207 10.8183 18.3923C9.58298 18.1639 8.44031 17.5825 7.52853 16.7183C7.28271 16.4853 7.05652 16.2344 6.85146 15.9683L5.81689 16.2456Z" fill="#222222"/>
<path d="M9.67063 3.30667C9.54649 2.84338 9.48442 2.61174 9.28694 2.51053C9.08946 2.40932 8.87978 2.48868 8.46042 2.64739C7.54796 2.99272 6.68924 3.47037 5.91239 4.06647C4.87054 4.8659 3.99636 5.86272 3.33975 7C2.68314 8.13728 2.25696 9.39275 2.08555 10.6947C1.95774 11.6656 1.97344 12.6481 2.13061 13.6109C2.20284 14.0535 2.23896 14.2747 2.42535 14.3952C2.61174 14.5156 2.84338 14.4535 3.30667 14.3294L11.0341 12.2588C11.4894 12.1368 11.7171 12.0758 11.8206 11.8964C11.9242 11.7171 11.8632 11.4894 11.7412 11.0341L9.67063 3.30667Z" fill="#222222"/>
</svg>
