<svg width="24" height="24" viewBox="0 0 24 24" fill="none" xmlns="http://www.w3.org/2000/svg">
<path fill-rule="evenodd" clip-rule="evenodd" d="M21 12C21 16.9706 16.9706 21 12 21C7.02944 21 3 16.9706 3 12C3 7.02944 7.02944 3 12 3C16.9706 3 21 7.02944 21 12ZM12.8 16.75C12.8 17.1642 12.4642 17.5 12.05 17.5C11.6358 17.5 11.3 17.1642 11.3 16.75C11.3 16.3358 11.6358 16 12.05 16C12.4642 16 12.8 16.3358 12.8 16.75ZM11.6 6.5C10.1641 6.5 9 7.66406 9 9.1H10C10 8.21634 10.7163 7.5 11.6 7.5H12.5096C13.3327 7.5 14 8.16726 14 8.99038V9.20192C14 9.7452 13.6383 10.222 13.1152 10.3685C12.1602 10.6359 11.5 11.5064 11.5 12.4981V14H12.5V12.4981C12.5 11.9548 12.8617 11.478 13.3848 11.3315C14.3398 11.0641 15 10.1936 15 9.20192V8.99038C15 7.61498 13.885 6.5 12.5096 6.5H11.6Z" fill="#222222"/>
</svg>
