<svg width="24" height="24" viewBox="0 0 24 24" fill="none" xmlns="http://www.w3.org/2000/svg">
<path d="M10.3072 7.21938C10.9493 5.61869 11.2704 4.81835 11.7919 4.70742C11.9291 4.67826 12.0708 4.67826 12.208 4.70742C12.7295 4.81835 13.0506 5.61869 13.6927 7.21938C14.0578 8.12966 14.2404 8.5848 14.582 8.89436C14.6778 8.98119 14.7818 9.05852 14.8926 9.12527C15.2874 9.36325 15.7803 9.40739 16.7661 9.49568C18.4348 9.64513 19.2692 9.71985 19.524 10.1956C19.5768 10.2941 19.6127 10.4008 19.6302 10.5112C19.7146 11.0442 19.1012 11.6023 17.8744 12.7184L17.5338 13.0284C16.9602 13.5502 16.6735 13.8111 16.5076 14.1367C16.4081 14.332 16.3414 14.5423 16.3101 14.7593C16.258 15.121 16.342 15.4995 16.5099 16.2565L16.5699 16.5269C16.8711 17.8844 17.0217 18.5632 16.8337 18.8969C16.6649 19.1965 16.3538 19.3884 16.0102 19.4048C15.6277 19.4231 15.0887 18.9839 14.0107 18.1055C13.3005 17.5268 12.9454 17.2374 12.5512 17.1244C12.191 17.0211 11.8089 17.0211 11.4487 17.1244C11.0545 17.2374 10.6994 17.5268 9.98917 18.1055C8.91119 18.9839 8.37221 19.4231 7.98968 19.4048C7.64609 19.3884 7.33504 19.1965 7.16617 18.8969C6.97818 18.5632 7.12878 17.8844 7.42997 16.5269L7.48998 16.2565C7.65794 15.4995 7.74191 15.121 7.6898 14.7593C7.65854 14.5423 7.59182 14.332 7.49232 14.1367C7.32645 13.8111 7.03968 13.5502 6.46613 13.0284L6.12546 12.7184C4.89867 11.6023 4.28527 11.0442 4.36975 10.5112C4.38724 10.4008 4.42312 10.2941 4.47589 10.1956C4.73069 9.71985 5.56507 9.64513 7.23384 9.49568C8.21962 9.40739 8.71251 9.36325 9.10735 9.12527C9.2181 9.05852 9.32211 8.98119 9.41793 8.89436C9.75954 8.5848 9.94211 8.12966 10.3072 7.21938Z" fill="#222222" stroke="#222222" stroke-width="2"/>
</svg>
