<svg width="24" height="24" viewBox="0 0 24 24" fill="none" xmlns="http://www.w3.org/2000/svg">
<path fill-rule="evenodd" clip-rule="evenodd" d="M17.2248 3.98184C16.2485 3.00553 14.6662 3.00613 13.6906 3.98318L4.39067 13.2972C3.77109 13.9177 3.40683 14.7484 3.36996 15.6248L3.25181 18.4338C3.20398 19.5708 4.11208 20.5187 5.24919 20.5187L8.00134 20.5189C8.94441 20.5189 9.84756 20.1379 10.5061 19.4623L19.7392 9.98907C20.6947 9.00873 20.6846 7.44168 19.7166 6.47369L17.2248 3.98184ZM14.3977 4.69029C14.983 4.10406 15.9324 4.1037 16.5182 4.68948L19.0101 7.18134C19.5909 7.76213 19.5969 8.70236 19.0236 9.29056L17.1935 11.1683L12.558 6.5328L14.3977 4.69029ZM11.8514 7.24044L5.09777 14.0043C4.65522 14.4475 4.39503 15.0409 4.3687 15.6669L4.25054 18.4759C4.22663 19.0444 4.68068 19.5183 5.24924 19.5184L8.00138 19.5185C8.675 19.5185 9.32011 19.2464 9.79046 18.7638L16.4954 11.8845L11.8514 7.24044Z" fill="#080808"/>
</svg>
